{"title":"The Three Musketeers 2011 CAM XviD DTRG","uid":6737319,"size":1280757012,"categoryP":"video","categoryS":"movies","magnet":"?xt=urn:btih:d0b01148c616145d6eb51f6dd57ecfc8fc19abd3&amp;dn=The+Three+Musketeers+2011+CAM+XviD+DTRG&amp;tr=udp%3A%2F%2Ftracker.openbittorrent.com%3A80&amp;tr=udp%3A%2F%2Fopen.demonii.com%3A1337&amp;tr=udp%3A%2F%2Ftracker.coppersurfer.tk%3A6969&amp;tr=udp%3A%2F%2Fexodus.desync.com%3A6969","seeders":1,"leechers":0,"uploader":".BONE.","files":2,"time":1318379243,"description":"Format : AVI\nFormat/Info : Audio Video Interleave\nFile size : 1.18 GiB\nDuration : 1h 45mn\nOverall bit rate : 1 609 Kbps\nWriting library : VirtualDub build 32842/release\n\nVideo\nID : 0\nFormat : MPEG-4 Visual\nFormat profile : Advanced Simple@L5\nFormat settings, BVOP : 2\nFormat settings, QPel : No\nFormat settings, GMC : No warppoints\nFormat settings, Matrix : Default (H.263)\nMuxing mode : Packed bitstream\nCodec ID : XVID\nCodec ID/Hint : XviD\nDuration : 1h 45mn\nBit rate : 1 408 Kbps\nWidth : 672 pixels\nHeight : 282 pixels\nDisplay aspect ratio : 2.40:1\nFrame rate : 25.000 fps\nColor space : YUV\nChroma subsampling : 4:2:0\nBit depth : 8 bits\nScan type : Progressive\nCompression mode : Lossy\nBits/(Pixel*Frame) : 0.297\nStream size : 1.03 GiB (87%)\nWriting library : XviD 64\n\nAudio\nID : 1\nFormat : MPEG Audio\nFormat version : Version 1\nFormat profile : Layer 3\nMode : Joint stereo\nMode extension : MS Stereo\nCodec ID : 55\nCodec ID/Hint : MP3\nDuration : 1h 45mn\nBit rate mode : Constant\nBit rate : 192 Kbps\nChannel(s) : 2 channels\nSampling rate : 48.0 KHz\nCompression mode : Lossy\nStream size : 144 MiB (12%)\nAlignment : Split accross interleaves\nInterleave, duration : 40 ms (1.00 video frame)\nInterleave, preload duration : 500 ms\nWriting library : LAME3.98r\nEncoding settings : -m j -V 4 -q 2 -lowpass 18.6 -b 192\n\n\n\n\n\n\n\n &lt;a href=&quot;\nhttp://www.imdb.com/title/tt1509767/&quot; rel=&quot;nofollow&quot; target=&quot;_NEW&quot;&gt;\nhttp://www.imdb.com/title/tt1509767/&lt;/a&gt;\n\n\n\n\n\n\nPlot:\nThe hot-headed young D'Artagnan along with three former\nlegendary but now down on their luck Musketeers must unite\nand defeat a beautiful double agent and her villainous\nemployer from seizing the French throne\nand engulfing Europe in war.\n &lt;a href=&quot;\nhttp://img528.imageshack.us/img528/4296/vlcsnap2011101115h12m47.png&quot; rel=&quot;nofollow&quot; target=&quot;_NEW&quot;&gt;\nhttp://img528.imageshack.us/img528/4296/vlcsnap2011101115h12m47.png&lt;/a&gt;\n &lt;a href=&quot;\nhttp://img8.imageshack.us/img8/9232/vlcsnap2011101115h17m26.png&quot; rel=&quot;nofollow&quot; target=&quot;_NEW&quot;&gt;\nhttp://img8.imageshack.us/img8/9232/vlcsnap2011101115h17m26.png&lt;/a&gt;\n &lt;a href=&quot;\nhttp://img195.imageshack.us/img195/150/vlcsnap2011101115h13m18.png&quot; rel=&quot;nofollow&quot; target=&quot;_NEW&quot;&gt;\nhttp://img195.imageshack.us/img195/150/vlcsnap2011101115h13m18.png&lt;/a&gt;\n &lt;a href=&quot;\nhttp://img710.imageshack.us/img710/2408/vlcsnap2011101115h41m07.png&quot; rel=&quot;nofollow&quot; target=&quot;_NEW&quot;&gt;\nhttp://img710.imageshack.us/img710/2408/vlcsnap2011101115h41m07.png&lt;/a&gt;\n\n\n\nSource Used\n\nFLOPPYDISK ................Thanks\n\niLLUMiNATi .........................Thanks matey\n\nBasically just dropped the saturation .......changed the colours abit ,sharpened it and upped contrast\n\nSample included\n\nEnjoy\n\n\n\n\n\nGreetz to IMAGiNE,Flawl3ss,BDK,Ez,Rx,CreWsaDe,TaRiQ786,ETRG,BHRG,iLLUMiNATi\n\n","torrent":{"xt":"urn:btih:d0b01148c616145d6eb51f6dd57ecfc8fc19abd3","amp;dn":"The+Three+Musketeers+2011+CAM+XviD+DTRG","amp;tr":["udp%3A%2F%2Ftracker.openbittorrent.com%3A80","udp%3A%2F%2Fopen.demonii.com%3A1337","udp%3A%2F%2Ftracker.coppersurfer.tk%3A6969","udp%3A%2F%2Fexodus.desync.com%3A6969"],"infoHash":"d0b01148c616145d6eb51f6dd57ecfc8fc19abd3","infoHashBuffer":{"type":"Buffer","data":[208,176,17,72,198,22,20,93,110,181,31,109,213,126,207,200,252,25,171,211]},"announce":[],"urlList":[]}}